<svg width="24" height="24" viewBox="0 0 24 24" fill="none" xmlns="http://www.w3.org/2000/svg">
<path d="M22.371 4.03389C19.0518 2.69931 15.3545 2.64869 12 3.89189C8.64549 2.64869 4.94822 2.69931 1.629 4.03389C1.44328 4.10809 1.28407 4.23627 1.17195 4.40187C1.05982 4.56748 0.999927 4.7629 1 4.96289V19.9999C0.99994 20.1633 1.03993 20.3242 1.11647 20.4686C1.19301 20.613 1.30376 20.7364 1.43905 20.8281C1.57433 20.9198 1.73001 20.9769 1.89248 20.9945C2.05495 21.012 2.21925 20.9895 2.371 20.9289C5.34127 19.7337 8.65873 19.7337 11.629 20.9289C11.7403 20.9711 11.858 20.9934 11.977 20.9949C11.985 20.9949 11.992 20.9949 12 20.9949C12.008 20.9949 12.015 20.9949 12.023 20.9949C12.142 20.9934 12.2597 20.9711 12.371 20.9289C15.3413 19.7337 18.6587 19.7337 21.629 20.9289C21.7807 20.9896 21.945 21.0123 22.1074 20.9949C22.2699 20.9774 22.4256 20.9204 22.561 20.8289C22.6964 20.7371 22.8072 20.6136 22.8837 20.4691C22.9603 20.3245 23.0002 20.1634 23 19.9999V4.96289C23.0001 4.7629 22.9402 4.56748 22.8281 4.40187C22.7159 4.23627 22.5567 4.10809 22.371 4.03389ZM11 18.6089C8.38863 17.8439 5.61309 17.8408 3 18.5999V5.65889C5.59468 4.77813 8.40819 4.7827 11 5.67189V18.6089ZM21 18.5999C18.3871 17.8429 15.6129 17.8429 13 18.5999V5.67189C15.5918 4.7827 18.4053 4.77813 21 5.65889V18.5999Z" fill="black"/>
</svg>
