<svg width="24" height="24" viewBox="0 0 24 24" fill="none" xmlns="http://www.w3.org/2000/svg">
<path d="M15.586 7.09L10.086 9.59C9.86353 9.68951 9.68552 9.86752 9.58601 10.09L7.086 15.59C7.00241 15.7755 6.97742 15.9822 7.01437 16.1823C7.05132 16.3824 7.14845 16.5665 7.29279 16.71C7.43712 16.8535 7.62179 16.9495 7.82214 16.9852C8.02248 17.0209 8.22896 16.9947 8.414 16.91L13.914 14.41C14.1365 14.3105 14.3145 14.1325 14.414 13.91L16.914 8.41C16.9976 8.22445 17.0226 8.01782 16.9856 7.81769C16.9487 7.61757 16.8516 7.43348 16.7072 7.29001C16.5629 7.14654 16.3782 7.05053 16.1779 7.01479C15.9775 6.97905 15.771 7.00529 15.586 7.09ZM12.745 12.745L10.014 13.986L11.255 11.255L13.986 10.014L12.745 12.745ZM12 1C9.82441 1 7.69767 1.64514 5.88873 2.85383C4.07979 4.06253 2.66989 5.78049 1.83733 7.79048C1.00477 9.80047 0.786929 12.0122 1.21137 14.146C1.6358 16.2798 2.68345 18.2398 4.22183 19.7782C5.76021 21.3166 7.72022 22.3642 9.85401 22.7886C11.9878 23.2131 14.1995 22.9952 16.2095 22.1627C18.2195 21.3301 19.9375 19.9202 21.1462 18.1113C22.3549 16.3023 23 14.1756 23 12C22.9966 9.08367 21.8365 6.28778 19.7744 4.22563C17.7122 2.16347 14.9163 1.00344 12 1ZM12 21C10.22 21 8.47992 20.4722 6.99987 19.4832C5.51983 18.4943 4.36628 17.0887 3.68509 15.4442C3.0039 13.7996 2.82567 11.99 3.17294 10.2442C3.5202 8.49836 4.37737 6.89471 5.63604 5.63604C6.89472 4.37737 8.49836 3.5202 10.2442 3.17293C11.99 2.82567 13.7996 3.0039 15.4442 3.68508C17.0887 4.36627 18.4943 5.51983 19.4832 6.99987C20.4722 8.47991 21 10.22 21 12C20.9974 14.3861 20.0483 16.6738 18.361 18.361C16.6738 20.0483 14.3861 20.9974 12 21Z" fill="black"/>
</svg>
