<svg width="24" height="24" viewBox="0 0 24 24" fill="none" xmlns="http://www.w3.org/2000/svg">
<path d="M20 3H4C3.20435 3 2.44129 3.31607 1.87868 3.87868C1.31607 4.44129 1 5.20435 1 6V18C1 18.7956 1.31607 19.5587 1.87868 20.1213C2.44129 20.6839 3.20435 21 4 21H20C20.7956 21 21.5587 20.6839 22.1213 20.1213C22.6839 19.5587 23 18.7956 23 18V6C23 5.20435 22.6839 4.44129 22.1213 3.87868C21.5587 3.31607 20.7956 3 20 3ZM21 18C21 18.2652 20.8946 18.5196 20.7071 18.7071C20.5196 18.8946 20.2652 19 20 19H4C3.73478 19 3.48043 18.8946 3.29289 18.7071C3.10536 18.5196 3 18.2652 3 18V6C3 5.73478 3.10536 5.48043 3.29289 5.29289C3.48043 5.10536 3.73478 5 4 5H20C20.2652 5 20.5196 5.10536 20.7071 5.29289C20.8946 5.48043 21 5.73478 21 6V18ZM19 16C19 16.2652 18.8946 16.5196 18.7071 16.7071C18.5196 16.8946 18.2652 17 18 17H15C14.7348 17 14.4804 16.8946 14.2929 16.7071C14.1054 16.5196 14 16.2652 14 16C14 15.7348 14.1054 15.4804 14.2929 15.2929C14.4804 15.1054 14.7348 15 15 15H18C18.2652 15 18.5196 15.1054 18.7071 15.2929C18.8946 15.4804 19 15.7348 19 16ZM9 9C9 9.39556 8.8827 9.78224 8.66294 10.1111C8.44318 10.44 8.13082 10.6964 7.76537 10.8478C7.39991 10.9991 6.99778 11.0387 6.60982 10.9616C6.22186 10.8844 5.86549 10.6939 5.58579 10.4142C5.30608 10.1345 5.1156 9.77814 5.03843 9.39018C4.96126 9.00222 5.00087 8.60009 5.15224 8.23463C5.30362 7.86918 5.55996 7.55682 5.88886 7.33706C6.21776 7.1173 6.60444 7 7 7C7.53043 7 8.03914 7.21071 8.41421 7.58579C8.78929 7.96086 9 8.46957 9 9Z" fill="black"/>
</svg>
