<svg width="24" height="24" viewBox="0 0 24 24" fill="none" xmlns="http://www.w3.org/2000/svg">
<path d="M12 1C9.82441 1 7.69767 1.64514 5.88873 2.85383C4.07979 4.06253 2.66989 5.78049 1.83733 7.79048C1.00477 9.80047 0.786929 12.0122 1.21137 14.146C1.6358 16.2798 2.68345 18.2398 4.22183 19.7782C5.76021 21.3166 7.72022 22.3642 9.85401 22.7886C11.9878 23.2131 14.1995 22.9952 16.2095 22.1627C18.2195 21.3301 19.9375 19.9202 21.1462 18.1113C22.3549 16.3023 23 14.1756 23 12C22.9966 9.08367 21.8365 6.28778 19.7744 4.22563C17.7122 2.16347 14.9163 1.00344 12 1ZM8.149 3.878C8.11029 4.66835 7.84163 5.4302 7.376 6.07C6.982 5.87 6.51601 5.613 5.998 5.313C6.64241 4.7339 7.36684 4.25061 8.149 3.878ZM6.183 18.855C4.65655 17.5631 3.60382 15.7997 3.191 13.843C6.8 12.618 8.34 12.433 8.94 12.433C8.83188 12.719 8.65172 12.9721 8.417 13.168C8.11767 13.4227 7.89361 13.7543 7.769 14.127C7.69791 14.4021 7.70723 14.6918 7.79586 14.9618C7.88449 15.2317 8.0487 15.4706 8.269 15.65C8.315 16.077 7.28601 17.412 6.605 18.296C6.465 18.476 6.324 18.67 6.183 18.855ZM12 21C10.5521 21 9.12585 20.6483 7.844 19.975C7.959 19.823 8.075 19.664 8.188 19.517C9.541 17.762 10.936 15.951 9.89701 14.517C10.2468 14.198 10.5257 13.8092 10.7157 13.3756C10.9057 12.942 11.0025 12.4734 11 12C11.0017 11.7648 10.9463 11.5327 10.8385 11.3237C10.7307 11.1146 10.5737 10.9349 10.381 10.8C9.918 10.473 8.986 9.811 3.01 11.792C3.04876 10.015 3.61624 8.28994 4.64 6.837C5.37801 7.273 6.019 7.628 6.553 7.895C6.85578 8.04974 7.19554 8.11746 7.53451 8.09063C7.87347 8.06379 8.19835 7.94345 8.473 7.743C9.593 6.959 10.173 4.943 10.186 3.184C11.7819 2.85456 13.4376 2.96904 14.973 3.515C11.758 4.888 11 6.653 11 8C11 11.034 13.017 11.268 14.1 11.394C15 11.499 15 11.499 15 12C14.984 12.8445 14.8054 13.6781 14.474 14.455C14.111 15.428 13.563 16.9 15.553 17.895C15.8826 18.0583 16.2462 18.1416 16.614 18.138C17.5456 18.0555 18.4477 17.7698 19.257 17.301C18.4241 18.4455 17.3327 19.3771 16.0716 20.0199C14.8105 20.6627 13.4155 20.9985 12 21ZM20.635 14.515C19.9585 14.7495 19.3003 15.0339 18.666 15.366C17.88 15.753 16.804 16.283 16.447 16.105C16.3307 16.0484 16.2185 15.9839 16.111 15.912C16.1652 15.6516 16.2445 15.397 16.348 15.152C16.7647 14.1526 16.986 13.0827 17 12C17 9.717 15.2 9.508 14.33 9.407C13.282 9.286 13 9.253 13 8C13 6.372 15.545 5.323 17.354 4.783C18.835 5.87116 19.9445 7.38933 20.5316 9.13078C21.1187 10.8722 21.1548 12.7523 20.635 14.515Z" fill="black"/>
</svg>
