<svg width="24" height="24" viewBox="0 0 24 24" fill="none" xmlns="http://www.w3.org/2000/svg">
<path d="M19.73 16.663C20.2249 16.0504 20.4964 15.2875 20.5 14.5C20.5 13.5717 20.1313 12.6815 19.4749 12.0251C18.8185 11.3687 17.9283 11 17 11C16.0717 11 15.1815 11.3687 14.5251 12.0251C13.8687 12.6815 13.5 13.5717 13.5 14.5C13.5036 15.2875 13.7751 16.0504 14.27 16.663C13.3527 17.1338 12.5713 17.8317 12 18.69C11.4287 17.8317 10.6473 17.1338 9.73 16.663C10.2249 16.0504 10.4964 15.2875 10.5 14.5C10.5 13.5717 10.1313 12.6815 9.47487 12.0251C8.8185 11.3687 7.92826 11 7 11C6.07174 11 5.1815 11.3687 4.52513 12.0251C3.86875 12.6815 3.5 13.5717 3.5 14.5C3.50355 15.2875 3.77512 16.0504 4.27 16.663C3.28657 17.1655 2.4609 17.9296 1.88393 18.8713C1.30697 19.813 1.0011 20.8956 1 22C1 22.2652 1.10536 22.5196 1.29289 22.7071C1.48043 22.8946 1.73478 23 2 23H22C22.2652 23 22.5196 22.8946 22.7071 22.7071C22.8946 22.5196 23 22.2652 23 22C22.9989 20.8956 22.693 19.813 22.1161 18.8713C21.5391 17.9296 20.7134 17.1655 19.73 16.663ZM7 13C7.29667 13 7.58668 13.088 7.83336 13.2528C8.08003 13.4176 8.27229 13.6519 8.38582 13.926C8.49935 14.2001 8.52906 14.5017 8.47118 14.7926C8.4133 15.0836 8.27044 15.3509 8.06066 15.5607C7.85088 15.7704 7.58361 15.9133 7.29264 15.9712C7.00166 16.0291 6.70006 15.9994 6.42597 15.8858C6.15189 15.7723 5.91762 15.58 5.7528 15.3334C5.58797 15.0867 5.5 14.7967 5.5 14.5C5.5 14.1022 5.65804 13.7206 5.93934 13.4393C6.22064 13.158 6.60218 13 7 13ZM3.126 21C3.34699 20.1405 3.84756 19.3789 4.5489 18.835C5.25024 18.2912 6.11252 17.9961 7 17.9961C7.88748 17.9961 8.74976 18.2912 9.4511 18.835C10.1524 19.3789 10.653 20.1405 10.874 21H3.126ZM17 13C17.2967 13 17.5867 13.088 17.8334 13.2528C18.08 13.4176 18.2723 13.6519 18.3858 13.926C18.4993 14.2001 18.5291 14.5017 18.4712 14.7926C18.4133 15.0836 18.2704 15.3509 18.0607 15.5607C17.8509 15.7704 17.5836 15.9133 17.2926 15.9712C17.0017 16.0291 16.7001 15.9994 16.426 15.8858C16.1519 15.7723 15.9176 15.58 15.7528 15.3334C15.588 15.0867 15.5 14.7967 15.5 14.5C15.5 14.1022 15.658 13.7206 15.9393 13.4393C16.2206 13.158 16.6022 13 17 13ZM13.126 21C13.347 20.1405 13.8476 19.3789 14.5489 18.835C15.2502 18.2912 16.1125 17.9961 17 17.9961C17.8875 17.9961 18.7498 18.2912 19.4511 18.835C20.1524 19.3789 20.653 20.1405 20.874 21H13.126ZM6 2V8C6 8.26522 6.10536 8.51957 6.29289 8.70711C6.48043 8.89464 6.73478 9 7 9H9.865L11.232 10.641C11.3259 10.7535 11.4433 10.8441 11.576 10.9062C11.7087 10.9683 11.8535 11.0006 12 11.0006C12.1465 11.0006 12.2913 10.9683 12.424 10.9062C12.5567 10.8441 12.6741 10.7535 12.768 10.641L14.135 9H17C17.2652 9 17.5196 8.89464 17.7071 8.70711C17.8946 8.51957 18 8.26522 18 8V2C18 1.73478 17.8946 1.48043 17.7071 1.29289C17.5196 1.10536 17.2652 1 17 1H7C6.73478 1 6.48043 1.10536 6.29289 1.29289C6.10536 1.48043 6 1.73478 6 2ZM8 3H16V7H13.667C13.5203 6.99979 13.3754 7.03184 13.2425 7.09388C13.1096 7.15592 12.992 7.24643 12.898 7.359L12 8.438L11.1 7.359C11.0062 7.24669 10.8889 7.15633 10.7564 7.0943C10.6239 7.03227 10.4793 7.00008 10.333 7H8V3Z" fill="black"/>
</svg>
