<svg width="24" height="24" viewBox="0 0 24 24" fill="none" xmlns="http://www.w3.org/2000/svg">
<path d="M16 1.99996C14.5177 1.95884 13.0795 2.50644 12 3.52296C10.9204 2.50644 9.48224 1.95884 8 1.99996C7.16045 2.00232 6.33174 2.18966 5.57281 2.54864C4.81387 2.90763 4.14337 3.42944 3.609 4.07696C1.776 6.27596 1.643 9.79996 2.518 12.358C2.526 12.376 2.532 12.394 2.54 12.412C4.147 17 10.963 22 12 22C13.019 22 19.815 17.11 21.46 12.412C21.468 12.394 21.474 12.376 21.482 12.358C22.345 9.84096 22.252 6.30896 20.391 4.07696C19.8566 3.42944 19.1861 2.90763 18.4272 2.54864C17.6683 2.18966 16.8395 2.00232 16 1.99996ZM12 19.818C10.609 18.914 6.739 16.2 4.982 13H9C9.16459 13 9.32664 12.9594 9.47178 12.8818C9.61692 12.8041 9.74065 12.6919 9.832 12.555L10.698 11.255L12.052 15.315C12.1112 15.4924 12.219 15.6497 12.3632 15.7689C12.5074 15.8882 12.6821 15.9646 12.8675 15.9895C13.0529 16.0144 13.2416 15.9867 13.4121 15.9098C13.5826 15.8328 13.7281 15.7095 13.832 15.554L15.535 13H19.019C17.261 16.2 13.391 18.914 12 19.818ZM19.785 11H15C14.8354 10.9999 14.6734 11.0405 14.5282 11.1182C14.3831 11.1958 14.2593 11.308 14.168 11.445L13.302 12.745L11.948 8.68496C11.8888 8.50751 11.7809 8.35023 11.6368 8.231C11.4926 8.11176 11.3179 8.03536 11.1325 8.01046C10.9471 7.98557 10.7584 8.01318 10.5879 8.09017C10.4174 8.16715 10.2719 8.29042 10.168 8.44596L8.465 11H4.215C3.815 9.10896 3.903 6.84696 5.146 5.35696C5.49059 4.93246 5.92567 4.59032 6.41946 4.35554C6.91324 4.12076 7.45324 3.99927 8 3.99996C11.067 3.99996 10.747 6.09996 11.989 6.11196H12C13.244 6.11196 12.929 3.99996 16 3.99996C16.5471 3.99897 17.0875 4.12032 17.5816 4.35511C18.0758 4.5899 18.5112 4.9322 18.856 5.35696C20.092 6.84196 20.188 9.09996 19.785 11Z" fill="black"/>
</svg>
