<svg width="24" height="24" viewBox="0 0 24 24" fill="none" xmlns="http://www.w3.org/2000/svg">
<path d="M22 2H2C1.73478 2 1.48043 2.10536 1.29289 2.29289C1.10536 2.48043 1 2.73478 1 3V17C1 17.2652 1.10536 17.5196 1.29289 17.7071C1.48043 17.8946 1.73478 18 2 18H11V20H8C7.73478 20 7.48043 20.1054 7.29289 20.2929C7.10536 20.4804 7 20.7348 7 21C7 21.2652 7.10536 21.5196 7.29289 21.7071C7.48043 21.8946 7.73478 22 8 22H16C16.2652 22 16.5196 21.8946 16.7071 21.7071C16.8946 21.5196 17 21.2652 17 21C17 20.7348 16.8946 20.4804 16.7071 20.2929C16.5196 20.1054 16.2652 20 16 20H13V18H22C22.2652 18 22.5196 17.8946 22.7071 17.7071C22.8946 17.5196 23 17.2652 23 17V3C23 2.73478 22.8946 2.48043 22.7071 2.29289C22.5196 2.10536 22.2652 2 22 2ZM21 4V12H3V4H21ZM3 16V14H21V16H3Z" fill="black"/>
</svg>
