<svg width="24" height="24" viewBox="0 0 24 24" fill="none" xmlns="http://www.w3.org/2000/svg">
<path d="M19.857 6.485C16.6 1.063 12.187 1 12 1C11.813 1 7.4 1.063 4.143 6.485C1 11.723 1 14.9 1 17C1 19.319 3.986 23 12 23C20.014 23 23 19.319 23 17C23 14.9 23 11.723 19.857 6.485ZM16 20.589V15C16 14.7348 15.8946 14.4804 15.7071 14.2929C15.5196 14.1054 15.2652 14 15 14H9C8.73478 14 8.48043 14.1054 8.29289 14.2929C8.10536 14.4804 8 14.7348 8 15V20.589C4.513 19.8 3 18.055 3 17C3 15.119 3 12.277 5.857 7.515C8.5 3.111 11.866 3 11.991 3C12.134 3 15.501 3.111 18.143 7.515C21 12.277 21 15.119 21 17C21 18.055 19.487 19.8 16 20.589Z" fill="black"/>
</svg>
