<svg width="24" height="24" viewBox="0 0 24 24" fill="none" xmlns="http://www.w3.org/2000/svg">
<path d="M12.022 23C14.6805 22.9946 17.2481 22.0312 19.2539 20.2864C21.2597 18.5415 22.5695 16.1322 22.943 13.5C23.1173 12.3017 22.9157 11.0789 22.366 10C20.711 6.854 17.589 7.329 15.31 7.678C14.13 7.856 12.91 8.044 12.445 7.643C12.1093 7.16474 11.9583 6.58104 12.02 6C12.02 3.317 12.02 1 9.02 1C3.753 1 1 6.534 1 12C1.00609 14.9193 2.16999 17.717 4.23633 19.7792C6.30267 21.8414 9.10267 22.9997 12.022 23V23ZM9.016 3C9.925 3 10.016 3 10.016 6C9.95793 6.57811 10.0284 7.16191 10.2224 7.7096C10.4163 8.25728 10.729 8.75531 11.138 9.168C12.301 10.168 13.982 9.909 15.607 9.662C18.09 9.283 19.668 9.18 20.593 10.938C20.9474 11.6467 21.0742 12.4475 20.956 13.231C20.6319 15.4851 19.4676 17.5333 17.6965 18.9649C15.9254 20.3964 13.6786 21.1054 11.4066 20.9497C9.13468 20.7939 7.00563 19.7849 5.44649 18.1251C3.88735 16.4652 3.01342 14.2772 3 12C3 8.382 4.6 3 9.016 3ZM5 7.5C5 7.20333 5.08797 6.91332 5.2528 6.66664C5.41762 6.41997 5.65189 6.22771 5.92597 6.11418C6.20006 6.00065 6.50166 5.97094 6.79264 6.02882C7.08361 6.0867 7.35088 6.22956 7.56066 6.43934C7.77044 6.64912 7.9133 6.91639 7.97118 7.20736C8.02906 7.49834 7.99935 7.79994 7.88582 8.07403C7.77229 8.34811 7.58003 8.58238 7.33336 8.7472C7.08668 8.91203 6.79667 9 6.5 9C6.10218 9 5.72064 8.84196 5.43934 8.56066C5.15804 8.27936 5 7.89782 5 7.5V7.5ZM4 12C4 11.7033 4.08797 11.4133 4.2528 11.1666C4.41762 10.92 4.65189 10.7277 4.92597 10.6142C5.20006 10.5006 5.50166 10.4709 5.79264 10.5288C6.08361 10.5867 6.35088 10.7296 6.56066 10.9393C6.77044 11.1491 6.9133 11.4164 6.97118 11.7074C7.02906 11.9983 6.99935 12.2999 6.88582 12.574C6.77229 12.8481 6.58003 13.0824 6.33336 13.2472C6.08668 13.412 5.79667 13.5 5.5 13.5C5.10218 13.5 4.72064 13.342 4.43934 13.0607C4.15804 12.7794 4 12.3978 4 12ZM7.5 15C7.79667 15 8.08668 15.088 8.33335 15.2528C8.58003 15.4176 8.77229 15.6519 8.88582 15.926C8.99935 16.2001 9.02906 16.5017 8.97118 16.7926C8.9133 17.0836 8.77044 17.3509 8.56066 17.5607C8.35088 17.7704 8.08361 17.9133 7.79264 17.9712C7.50166 18.0291 7.20006 17.9993 6.92597 17.8858C6.65189 17.7723 6.41762 17.58 6.2528 17.3334C6.08797 17.0867 6 16.7967 6 16.5C6 16.1022 6.15804 15.7206 6.43934 15.4393C6.72064 15.158 7.10218 15 7.5 15V15ZM15.5 18C16.1922 18 16.8689 17.7947 17.4445 17.4101C18.0201 17.0256 18.4687 16.4789 18.7336 15.8394C18.9985 15.1999 19.0678 14.4961 18.9327 13.8172C18.7977 13.1382 18.4644 12.5146 17.9749 12.0251C17.4854 11.5356 16.8617 11.2023 16.1828 11.0673C15.5039 10.9322 14.8001 11.0015 14.1606 11.2664C13.5211 11.5313 12.9744 11.9799 12.5899 12.5555C12.2053 13.1311 12 13.8078 12 14.5C12 15.4283 12.3687 16.3185 13.0251 16.9749C13.6815 17.6313 14.5717 18 15.5 18ZM15.5 13C15.7967 13 16.0867 13.088 16.3334 13.2528C16.58 13.4176 16.7723 13.6519 16.8858 13.926C16.9993 14.2001 17.0291 14.5017 16.9712 14.7926C16.9133 15.0836 16.7704 15.3509 16.5607 15.5607C16.3509 15.7704 16.0836 15.9133 15.7926 15.9712C15.5017 16.0291 15.2001 15.9994 14.926 15.8858C14.6519 15.7723 14.4176 15.58 14.2528 15.3334C14.088 15.0867 14 14.7967 14 14.5C14 14.1022 14.158 13.7206 14.4393 13.4393C14.7206 13.158 15.1022 13 15.5 13V13Z" fill="black"/>
</svg>
