<svg width="24" height="24" viewBox="0 0 24 24" fill="none" xmlns="http://www.w3.org/2000/svg">
<path d="M12 1C9.82441 1 7.69767 1.64514 5.88873 2.85383C4.07979 4.06253 2.66989 5.78049 1.83733 7.79048C1.00477 9.80047 0.786929 12.0122 1.21137 14.146C1.6358 16.2798 2.68345 18.2398 4.22183 19.7782C5.76021 21.3166 7.72022 22.3642 9.85401 22.7886C11.9878 23.2131 14.1995 22.9952 16.2095 22.1627C18.2195 21.3301 19.9375 19.9202 21.1462 18.1113C22.3549 16.3023 23 14.1756 23 12C22.9966 9.08367 21.8365 6.28778 19.7744 4.22563C17.7122 2.16347 14.9163 1.00344 12 1ZM3.00001 12C3.00322 9.78745 3.82035 7.65342 5.29568 6.00455C6.77102 4.35568 8.80142 3.30724 11 3.059V11.586L4.975 17.611C3.69607 16.0206 2.99921 14.0408 3.00001 12ZM12 21C9.95917 21.0008 7.97938 20.3039 6.389 19.025L12.414 13H20.941C20.6928 15.1986 19.6443 17.229 17.9955 18.7043C16.3466 20.1797 14.2126 20.9968 12 21ZM13 11V3.059C15.0269 3.28866 16.916 4.19911 18.3585 5.64155C19.8009 7.08398 20.7113 8.97306 20.941 11H13Z" fill="black"/>
</svg>
