<svg width="24" height="24" viewBox="0 0 24 24" fill="none" xmlns="http://www.w3.org/2000/svg">
<path d="M20 6H17C17 4.67392 16.4732 3.40215 15.5355 2.46447C14.5979 1.52678 13.3261 1 12 1C10.6739 1 9.40215 1.52678 8.46447 2.46447C7.52678 3.40215 7 4.67392 7 6H4C3.73478 6 3.48043 6.10536 3.29289 6.29289C3.10536 6.48043 3 6.73478 3 7V11.184C3.00012 11.3439 3.03859 11.5015 3.1122 11.6435C3.1858 11.7855 3.29238 11.9077 3.423 12C4.03 12.43 4.335 12 5 12C5.53043 12 6.03914 12.2107 6.41421 12.5858C6.78929 12.9609 7 13.4696 7 14C7 14.5304 6.78929 15.0391 6.41421 15.4142C6.03914 15.7893 5.53043 16 5 16C4.77241 15.9966 4.5471 15.954 4.334 15.874C4.1832 15.8206 4.02177 15.8041 3.86328 15.826C3.70479 15.8478 3.55386 15.9074 3.42317 15.9997C3.29248 16.092 3.18584 16.2143 3.11221 16.3563C3.03857 16.4984 3.00009 16.656 3 16.816V22C3 22.2652 3.10536 22.5196 3.29289 22.7071C3.48043 22.8946 3.73478 23 4 23H9.184C9.34399 22.9999 9.50163 22.9614 9.64367 22.8878C9.78571 22.8142 9.90801 22.7075 10.0003 22.5768C10.0926 22.4461 10.1522 22.2952 10.174 22.1367C10.1959 21.9782 10.1794 21.8168 10.126 21.666C10.0176 21.3652 9.98318 21.0428 10.0257 20.7259C10.0681 20.409 10.1863 20.1071 10.37 19.8455C10.5538 19.5839 10.7979 19.3703 11.0816 19.2229C11.3653 19.0755 11.6803 18.9986 12 18.9986C12.3197 18.9986 12.6347 19.0755 12.9184 19.2229C13.2021 19.3703 13.4462 19.5839 13.63 19.8455C13.8137 20.1071 13.9319 20.409 13.9743 20.7259C14.0168 21.0428 13.9824 21.3652 13.874 21.666C13.8206 21.8168 13.8041 21.9782 13.826 22.1367C13.8478 22.2952 13.9074 22.4461 13.9997 22.5768C14.092 22.7075 14.2143 22.8142 14.3563 22.8878C14.4984 22.9614 14.656 22.9999 14.816 23H20C20.2652 23 20.5196 22.8946 20.7071 22.7071C20.8946 22.5196 21 22.2652 21 22V16.816C20.9999 16.656 20.9614 16.4984 20.8878 16.3563C20.8142 16.2143 20.7075 16.092 20.5768 15.9997C20.4461 15.9074 20.2952 15.8478 20.1367 15.826C19.9782 15.8041 19.8168 15.8206 19.666 15.874C19.4529 15.954 19.2276 15.9966 19 16C18.4696 16 17.9609 15.7893 17.5858 15.4142C17.2107 15.0391 17 14.5304 17 14C17 13.4696 17.2107 12.9609 17.5858 12.5858C17.9609 12.2107 18.4696 12 19 12C19.65 12 19.985 12.42 20.577 12C20.7076 11.9077 20.8142 11.7855 20.8878 11.6435C20.9614 11.5015 20.9999 11.3439 21 11.184V7C21 6.73478 20.8946 6.48043 20.7071 6.29289C20.5196 6.10536 20.2652 6 20 6ZM19 10C17.9391 10 16.9217 10.4214 16.1716 11.1716C15.4214 11.9217 15 12.9391 15 14C15 15.0609 15.4214 16.0783 16.1716 16.8284C16.9217 17.5786 17.9391 18 19 18V21H16C16 19.9391 15.5786 18.9217 14.8284 18.1716C14.0783 17.4214 13.0609 17 12 17C10.9391 17 9.92172 17.4214 9.17157 18.1716C8.42143 18.9217 8 19.9391 8 21H5V18C6.06087 18 7.07828 17.5786 7.82843 16.8284C8.57857 16.0783 9 15.0609 9 14C9 12.9391 8.57857 11.9217 7.82843 11.1716C7.07828 10.4214 6.06087 10 5 10V8H8.142C8.29451 7.99981 8.44496 7.96474 8.58184 7.89747C8.71871 7.8302 8.83839 7.73251 8.93171 7.61188C9.02502 7.49125 9.08952 7.35087 9.12024 7.20149C9.15097 7.0521 9.14713 6.89767 9.109 6.75C8.98551 6.30446 8.96666 5.8364 9.05393 5.38238C9.14121 4.92835 9.33224 4.50064 9.61212 4.13263C9.89199 3.76463 10.2531 3.46629 10.6674 3.26091C11.0816 3.05554 11.5377 2.94868 12 2.94868C12.4623 2.94868 12.9184 3.05554 13.3326 3.26091C13.7469 3.46629 14.108 3.76463 14.3879 4.13263C14.6678 4.50064 14.8588 4.92835 14.9461 5.38238C15.0333 5.8364 15.0145 6.30446 14.891 6.75C14.8522 6.89755 14.8479 7.05205 14.8784 7.20153C14.909 7.35101 14.9735 7.49146 15.067 7.612C15.1605 7.73278 15.2804 7.83055 15.4175 7.89781C15.5546 7.96506 15.7053 8.00002 15.858 8H19V10Z" fill="black"/>
</svg>
