<svg width="24" height="24" viewBox="0 0 24 24" fill="none" xmlns="http://www.w3.org/2000/svg">
<path d="M16.707 18.707C16.5184 18.8892 16.2658 18.9899 16.0036 18.9877C15.7414 18.9854 15.4906 18.8802 15.3052 18.6948C15.1198 18.5094 15.0146 18.2586 15.0123 17.9964C15.01 17.7342 15.1108 17.4816 15.293 17.293L19.586 13H2C1.73478 13 1.48043 12.8946 1.29289 12.7071C1.10536 12.5196 1 12.2652 1 12C1 11.7348 1.10536 11.4804 1.29289 11.2929C1.48043 11.1054 1.73478 11 2 11H19.586L15.293 6.707C15.1108 6.51839 15.01 6.26579 15.0123 6.00359C15.0146 5.7414 15.1198 5.49058 15.3052 5.30518C15.4906 5.11977 15.7414 5.0146 16.0036 5.01232C16.2658 5.01004 16.5184 5.11084 16.707 5.293L22.707 11.293C22.8945 11.4805 22.9998 11.7348 22.9998 12C22.9998 12.2652 22.8945 12.5195 22.707 12.707L16.707 18.707Z" fill="black"/>
</svg>
