<svg width="24" height="24" viewBox="0 0 24 24" fill="none" xmlns="http://www.w3.org/2000/svg">
<path d="M21.481 14.068L19.281 7.48299C19.2145 7.28397 19.087 7.11092 18.9167 6.98834C18.7464 6.86576 18.5418 6.79987 18.332 6.79999C17.2957 6.81353 16.2821 6.49576 15.439 5.89299C14.7205 4.98033 14.2201 3.91556 13.976 2.77999C13.9367 2.60538 13.8512 2.44452 13.7285 2.31421C13.6058 2.1839 13.4503 2.08892 13.2784 2.03916C13.1065 1.98941 12.9243 1.98672 12.751 2.03137C12.5777 2.07601 12.4195 2.16636 12.293 2.29299L6.293 8.29299C6.19879 8.38718 6.12435 8.49925 6.07405 8.62261C6.02375 8.74597 5.99861 8.87814 6.0001 9.01136C6.00159 9.14457 6.02968 9.27614 6.08273 9.39835C6.13577 9.52056 6.2127 9.63093 6.309 9.72299L18.846 21.723C19.035 21.9041 19.2875 22.0039 19.5493 22.0009C19.811 21.9979 20.0612 21.8924 20.246 21.707L21.9 20.049C22.6023 19.3459 22.9967 18.3927 22.9967 17.399C22.9967 16.4052 22.6023 15.4521 21.9 14.749C21.7097 14.5573 21.5663 14.3243 21.481 14.068ZM20.489 18.635L19.522 19.602L8.43 8.98399L12.544 4.86999C12.8755 5.77153 13.3803 6.59944 14.03 7.30699C15.0312 8.16485 16.2842 8.67378 17.6 8.75699L19.583 14.7C19.7683 15.2512 20.0784 15.7522 20.489 16.164C20.816 16.492 20.9996 16.9363 20.9996 17.3995C20.9996 17.8627 20.816 18.307 20.489 18.635ZM1 17C1 16.7348 1.10536 16.4804 1.29289 16.2929C1.48043 16.1053 1.73478 16 2 16H10C10.2652 16 10.5196 16.1053 10.7071 16.2929C10.8946 16.4804 11 16.7348 11 17C11 17.2652 10.8946 17.5196 10.7071 17.7071C10.5196 17.8946 10.2652 18 10 18H2C1.73478 18 1.48043 17.8946 1.29289 17.7071C1.10536 17.5196 1 17.2652 1 17ZM1 13C1 12.7348 1.10536 12.4804 1.29289 12.2929C1.48043 12.1053 1.73478 12 2 12H6C6.26522 12 6.51957 12.1053 6.70711 12.2929C6.89464 12.4804 7 12.7348 7 13C7 13.2652 6.89464 13.5196 6.70711 13.7071C6.51957 13.8946 6.26522 14 6 14H2C1.73478 14 1.48043 13.8946 1.29289 13.7071C1.10536 13.5196 1 13.2652 1 13ZM1 21C1 20.7348 1.10536 20.4804 1.29289 20.2929C1.48043 20.1053 1.73478 20 2 20H14C14.2652 20 14.5196 20.1053 14.7071 20.2929C14.8946 20.4804 15 20.7348 15 21C15 21.2652 14.8946 21.5196 14.7071 21.7071C14.5196 21.8946 14.2652 22 14 22H2C1.73478 22 1.48043 21.8946 1.29289 21.7071C1.10536 21.5196 1 21.2652 1 21Z" fill="black"/>
</svg>
