<svg width="24" height="24" viewBox="0 0 24 24" fill="none" xmlns="http://www.w3.org/2000/svg">
<path d="M21 5H17V3C17 2.46957 16.7893 1.96086 16.4142 1.58579C16.0391 1.21071 15.5304 1 15 1H9C8.46957 1 7.96086 1.21071 7.58579 1.58579C7.21071 1.96086 7 2.46957 7 3V5H3C2.46957 5 1.96086 5.21071 1.58579 5.58579C1.21071 5.96086 1 6.46957 1 7V19C1 19.5304 1.21071 20.0391 1.58579 20.4142C1.96086 20.7893 2.46957 21 3 21H21C21.5304 21 22.0391 20.7893 22.4142 20.4142C22.7893 20.0391 23 19.5304 23 19V7C23 6.46957 22.7893 5.96086 22.4142 5.58579C22.0391 5.21071 21.5304 5 21 5ZM16.09 19H7.91C7.70047 17.774 7.11563 16.6433 6.23617 15.7638C5.3567 14.8844 4.22597 14.2995 3 14.09V11.91C4.22597 11.7005 5.3567 11.1156 6.23617 10.2362C7.11563 9.3567 7.70047 8.22597 7.91 7H16.09C16.2995 8.22597 16.8844 9.3567 17.7638 10.2362C18.6433 11.1156 19.774 11.7005 21 11.91V14.09C19.774 14.2995 18.6433 14.8844 17.7638 15.7638C16.8844 16.6433 16.2995 17.774 16.09 19ZM21 7V9.873C20.3087 9.69308 19.6779 9.33199 19.1727 8.82696C18.6675 8.32193 18.3062 7.69125 18.126 7H21ZM9 3H15V5H9V3ZM3 7H5.874C5.69384 7.69125 5.33253 8.32193 4.82732 8.82696C4.32212 9.33199 3.69132 9.69308 3 9.873V7ZM3 19V16.127C3.69132 16.3069 4.32212 16.668 4.82732 17.173C5.33253 17.6781 5.69384 18.3087 5.874 19H3ZM21 19H18.126C18.3062 18.3087 18.6675 17.6781 19.1727 17.173C19.6779 16.668 20.3087 16.3069 21 16.127V19ZM12 9C11.2089 9 10.4355 9.2346 9.77772 9.67412C9.11992 10.1136 8.60723 10.7384 8.30448 11.4693C8.00173 12.2002 7.92252 13.0044 8.07686 13.7804C8.2312 14.5563 8.61216 15.269 9.17157 15.8284C9.73098 16.3878 10.4437 16.7688 11.2196 16.9231C11.9956 17.0775 12.7998 16.9983 13.5307 16.6955C14.2616 16.3928 14.8864 15.8801 15.3259 15.2223C15.7654 14.5645 16 13.7911 16 13C16 11.9391 15.5786 10.9217 14.8284 10.1716C14.0783 9.42143 13.0609 9 12 9ZM12 15C11.6044 15 11.2178 14.8827 10.8889 14.6629C10.56 14.4432 10.3036 14.1308 10.1522 13.7654C10.0009 13.3999 9.96126 12.9978 10.0384 12.6098C10.1156 12.2219 10.3061 11.8655 10.5858 11.5858C10.8655 11.3061 11.2219 11.1156 11.6098 11.0384C11.9978 10.9613 12.3999 11.0009 12.7654 11.1522C13.1308 11.3036 13.4432 11.56 13.6629 11.8889C13.8827 12.2178 14 12.6044 14 13C14 13.5304 13.7893 14.0391 13.4142 14.4142C13.0391 14.7893 12.5304 15 12 15Z" fill="black"/>
</svg>
