<svg width="24" height="24" viewBox="0 0 24 24" fill="none" xmlns="http://www.w3.org/2000/svg">
<path d="M11 16.9309V20.9999H8.00001C7.73479 20.9999 7.48044 21.1053 7.29291 21.2928C7.10537 21.4803 7.00001 21.7347 7.00001 21.9999C7.00001 22.2651 7.10537 22.5195 7.29291 22.707C7.48044 22.8946 7.73479 22.9999 8.00001 22.9999H16C16.2652 22.9999 16.5196 22.8946 16.7071 22.707C16.8947 22.5195 17 22.2651 17 21.9999C17 21.7347 16.8947 21.4803 16.7071 21.2928C16.5196 21.1053 16.2652 20.9999 16 20.9999H13V16.9309C15.0191 16.6765 16.8653 15.6623 18.1628 14.0946C19.4604 12.5269 20.1117 10.5237 19.9843 8.49267C19.8569 6.46166 18.9602 4.55555 17.4769 3.16236C15.9935 1.76918 14.035 0.993652 12 0.993652C9.965 0.993652 8.00648 1.76918 6.52314 3.16236C5.03981 4.55555 4.14315 6.46166 4.01571 8.49267C3.88828 10.5237 4.53963 12.5269 5.83719 14.0946C7.13475 15.6623 8.98096 16.6765 11 16.9309ZM12 2.99991C13.4984 3.00858 14.9393 3.5776 16.0393 4.59502C17.1393 5.61245 17.8189 7.00465 17.9442 8.49779C18.0696 9.99094 17.6317 11.477 16.7168 12.6636C15.8018 13.8502 14.476 14.6515 13 14.9099V13.4099L15.707 10.7029C15.8892 10.5143 15.99 10.2617 15.9877 9.99951C15.9854 9.73731 15.8802 9.4865 15.6948 9.30109C15.5094 9.11568 15.2586 9.01051 14.9964 9.00823C14.7342 9.00595 14.4816 9.10675 14.293 9.28891L13 10.5859V7.99991C13 7.73469 12.8947 7.48034 12.7071 7.2928C12.5196 7.10526 12.2652 6.99991 12 6.99991C11.7348 6.99991 11.4804 7.10526 11.2929 7.2928C11.1054 7.48034 11 7.73469 11 7.99991V10.5859L9.70701 9.29291C9.51841 9.11075 9.26581 9.00995 9.00361 9.01223C8.74141 9.01451 8.4906 9.11968 8.30519 9.30509C8.11978 9.4905 8.01462 9.74131 8.01234 10.0035C8.01006 10.2657 8.11085 10.5183 8.29301 10.7069L11 13.4139V14.9139C9.51921 14.6605 8.18737 13.8607 7.26772 12.6728C6.34807 11.4848 5.90754 9.99511 6.03319 8.49805C6.15885 7.00099 6.84155 5.60553 7.94636 4.5875C9.05117 3.56947 10.4977 3.00295 12 2.99991Z" fill="black"/>
</svg>
