<svg width="24" height="24" viewBox="0 0 24 24" fill="none" xmlns="http://www.w3.org/2000/svg">
<path d="M22 11H21V8C21 7.20435 20.6839 6.44129 20.1213 5.87868C19.5587 5.31607 18.7956 5 18 5C17.2044 5 16.4413 5.31607 15.8787 5.87868C15.3161 6.44129 15 7.20435 15 8V11H9V8C9 7.20435 8.68393 6.44129 8.12132 5.87868C7.55871 5.31607 6.79565 5 6 5C5.20435 5 4.44129 5.31607 3.87868 5.87868C3.31607 6.44129 3 7.20435 3 8V11H2C1.73478 11 1.48043 11.1054 1.29289 11.2929C1.10536 11.4804 1 11.7348 1 12C1 12.2652 1.10536 12.5196 1.29289 12.7071C1.48043 12.8946 1.73478 13 2 13H3V16C3 16.7956 3.31607 17.5587 3.87868 18.1213C4.44129 18.6839 5.20435 19 6 19C6.79565 19 7.55871 18.6839 8.12132 18.1213C8.68393 17.5587 9 16.7956 9 16V13H15V16C15 16.7956 15.3161 17.5587 15.8787 18.1213C16.4413 18.6839 17.2044 19 18 19C18.7956 19 19.5587 18.6839 20.1213 18.1213C20.6839 17.5587 21 16.7956 21 16V13H22C22.2652 13 22.5196 12.8946 22.7071 12.7071C22.8946 12.5196 23 12.2652 23 12C23 11.7348 22.8946 11.4804 22.7071 11.2929C22.5196 11.1054 22.2652 11 22 11ZM7 16C7 16.2652 6.89464 16.5196 6.70711 16.7071C6.51957 16.8946 6.26522 17 6 17C5.73478 17 5.48043 16.8946 5.29289 16.7071C5.10536 16.5196 5 16.2652 5 16V8C5 7.73478 5.10536 7.48043 5.29289 7.29289C5.48043 7.10536 5.73478 7 6 7C6.26522 7 6.51957 7.10536 6.70711 7.29289C6.89464 7.48043 7 7.73478 7 8V16ZM19 16C19 16.2652 18.8946 16.5196 18.7071 16.7071C18.5196 16.8946 18.2652 17 18 17C17.7348 17 17.4804 16.8946 17.2929 16.7071C17.1054 16.5196 17 16.2652 17 16V8C17 7.73478 17.1054 7.48043 17.2929 7.29289C17.4804 7.10536 17.7348 7 18 7C18.2652 7 18.5196 7.10536 18.7071 7.29289C18.8946 7.48043 19 7.73478 19 8V16Z" fill="black"/>
</svg>
